<?xml version="1.0" encoding="iso-8859-1"?>
<!-- Generator: Adobe Illustrator 19.0.0, SVG Export Plug-In . SVG Version: 6.00 Build 0)  -->
<svg version="1.1" id="Capa_1" xmlns="http://www.w3.org/2000/svg" xmlns:xlink="http://www.w3.org/1999/xlink" x="0px" y="0px"
	 viewBox="0 0 480.157 480.157" style="enable-background:new 0 0 480.157 480.157;" xml:space="preserve">
<g>
	<g>
		<path d="M280.966,275.989c11.046-13.568,9.002-33.523-4.567-44.569c-3.605-2.935-7.811-5.04-12.321-6.167v-9.136
			c0-4.418-3.582-8-8-8c-4.418,0-8,3.582-8,8v8h-8v-8c0-4.418-3.582-8-8-8s-8,3.582-8,8v8h-24c-4.418,0-8,3.582-8,8s3.582,8,8,8h8
			v96h-8c-4.418,0-8,3.582-8,8s3.582,8,8,8h24v8c0,4.418,3.582,8,8,8s8-3.582,8-8v-8h8v8c0,4.418,3.582,8,8,8c4.418,0,8-3.582,8-8
			v-8c22.047,0.043,39.955-17.795,39.998-39.842C304.106,296.709,295.085,282.544,280.966,275.989z M224.078,240.117h32
			c8.837,0,16,7.163,16,16c0,8.837-7.163,16-16,16h-32V240.117z M264.078,336.117h-40v-48h40c13.255,0,24,10.745,24,24
			S277.333,336.117,264.078,336.117z"/>
	</g>
</g>
<g>
	<g>
		<path d="M477.814,234.461l-77.736-77.736V56.117c0-4.418-3.582-8-8-8h-48c-4.418,0-8,3.582-8,8v36.608L245.734,2.381
			c-3.124-3.123-8.188-3.123-11.312,0L2.342,234.461c-3.124,3.125-3.123,8.19,0.002,11.314c1.5,1.499,3.534,2.342,5.654,2.342h32.08
			v224c0,4.418,3.582,8,8,8h384c4.418,0,8-3.582,8-8v-224h32.08c4.418-0.001,7.999-3.583,7.998-8.002
			C480.156,237.995,479.314,235.961,477.814,234.461z M352.078,64.117h32v76.608l-32-32V64.117z M432.078,232.117
			c-4.418,0-8,3.582-8,8v224h-368v-224c0-4.418-3.582-8-8-8h-20.8l212.8-212.8l212.8,212.8H432.078z"/>
	</g>
</g>
<g>
	<g>
		<path d="M240.078,160.117c-70.692,0-128,57.308-128,128s57.308,128,128,128s128-57.308,128-128
			C367.995,217.46,310.736,160.201,240.078,160.117z M240.078,400.117c-61.856,0-112-50.144-112-112s50.144-112,112-112
			s112,50.144,112,112C352.012,349.946,301.907,400.051,240.078,400.117z"/>
	</g>
</g>
<g>
</g>
<g>
</g>
<g>
</g>
<g>
</g>
<g>
</g>
<g>
</g>
<g>
</g>
<g>
</g>
<g>
</g>
<g>
</g>
<g>
</g>
<g>
</g>
<g>
</g>
<g>
</g>
<g>
</g>
</svg>
