<svg height="512" viewBox="0 0 512 512" width="512" xmlns="http://www.w3.org/2000/svg"><g id="Outline"><path d="m470.635 320.94a80 80 0 1 0 -93.27 0 23.977 23.977 0 0 0 -11.234 39.06 23.954 23.954 0 0 0 -3.782 26.349 23.85 23.85 0 0 0 -10.349-2.349h-1.376a23.992 23.992 0 0 0 -22.624-32h-80a24 24 0 0 0 0 48h1.376a23.923 23.923 0 0 0 .321 16.846 23.98 23.98 0 0 0 -9.7 5.285 23.9 23.9 0 0 0 -15.997-6.131h-80a23.85 23.85 0 0 0 -10.349 2.349 23.964 23.964 0 0 0 -6.271-28.755 80 80 0 1 0 -87.325-5.594h-8.055a23.984 23.984 0 0 0 -17.869 40 23.978 23.978 0 0 0 11.569 39.154 23.985 23.985 0 0 0 22.3 32.846h80a23.9 23.9 0 0 0 16-6.131 23.9 23.9 0 0 0 16 6.131h80a23.9 23.9 0 0 0 16-6.131 23.9 23.9 0 0 0 16 6.131h80a23.9 23.9 0 0 0 16-6.131 23.9 23.9 0 0 0 16 6.131h80a24 24 0 0 0 6.3-47.154 23.9 23.9 0 0 0 0-17.692 23.978 23.978 0 0 0 11.569-39.154 23.943 23.943 0 0 0 0-32 23.977 23.977 0 0 0 -11.234-39.06zm-110.635-64.94a64 64 0 1 1 64 64 64.072 64.072 0 0 1 -64-64zm24 80h80a8 8 0 0 1 0 16h-80a8 8 0 0 1 0-16zm88 40a8.009 8.009 0 0 1 -8 8h-80a8 8 0 0 1 0-16h80a8.009 8.009 0 0 1 8 8zm-16 64a8.009 8.009 0 0 1 -8 8h-80a8 8 0 0 1 0-16h80a8.009 8.009 0 0 1 8 8zm-216-64a8.009 8.009 0 0 1 8-8h80a8 8 0 0 1 0 16h-80a8.009 8.009 0 0 1 -8-8zm112 24a8 8 0 0 1 0 16h-80a8 8 0 0 1 0-16zm-96 32h80a8 8 0 0 1 0 16h-80a8 8 0 0 1 0-16zm-112 0h80a8 8 0 0 1 0 16h-80a8 8 0 0 1 0-16zm-120-112a64 64 0 1 1 64 64 64.072 64.072 0 0 1 -64-64zm8 80h80a8 8 0 0 1 0 16h-80a8 8 0 0 1 0-16zm0 32h80a8 8 0 0 1 0 16h-80a8 8 0 0 1 0-16zm96 48h-80a8 8 0 0 1 0-16h80a8 8 0 0 1 0 16zm112 0h-80a8 8 0 0 1 0-16h80a8 8 0 0 1 0 16zm112 0h-80a8 8 0 0 1 0-16h80a8 8 0 0 1 0 16zm112 0h-80a8 8 0 0 1 0-16h80a8 8 0 0 1 0 16zm0-64h-80a8 8 0 0 1 0-16h80a8 8 0 0 1 0 16z"/><path d="m416 294.955v9.045h16v-9.045a22.834 22.834 0 0 0 3.379-42.21l-15.6-7.8a6.833 6.833 0 0 1 3.054-12.945h2.334a6.84 6.84 0 0 1 6.833 6.833v1.167h16v-1.167a22.876 22.876 0 0 0 -16-21.788v-9.045h-16v9.045a22.834 22.834 0 0 0 -3.379 42.21l15.6 7.8a6.833 6.833 0 0 1 -3.054 12.945h-2.334a6.84 6.84 0 0 1 -6.833-6.833v-1.167h-16v1.167a22.876 22.876 0 0 0 16 21.788z"/><path d="m96 281.045v-9.045h-16v9.045a22.834 22.834 0 0 0 -3.379 42.21l15.6 7.8a6.833 6.833 0 0 1 -3.054 12.945h-2.334a6.84 6.84 0 0 1 -6.833-6.833v-1.167h-16v1.167a22.876 22.876 0 0 0 16 21.788v9.045h16v-9.045a22.834 22.834 0 0 0 3.379-42.21l-15.6-7.8a6.833 6.833 0 0 1 3.054-12.945h2.334a6.84 6.84 0 0 1 6.833 6.833v1.167h16v-1.167a22.876 22.876 0 0 0 -16-21.788z"/><path d="m288 80h120v80h16v-88a8 8 0 0 0 -8-8h-8v-40a8 8 0 0 0 -9.217-7.907l-104 16a8 8 0 0 0 -6.783 7.907v24h-8a8 8 0 0 0 -8 8v112h16zm16-33.137 88-13.538v30.675h-88z"/><path d="m120 128h112v64h16v-72a8 8 0 0 0 -8-8h-8v-24a8 8 0 0 0 -8-8h-8v-24a8 8 0 0 0 -8-8h-8v-16h-16v16h-16v-32h-16v32h-8a8 8 0 0 0 -8 8v24h-8a8 8 0 0 0 -8 8v24h-8a8 8 0 0 0 -8 8v104h16zm32-64h48v16h-48zm-16 32h80v16h-80z"/><path d="m328 336v-136a8 8 0 0 0 -8.992-7.938l-128 16a8 8 0 0 0 -7.008 7.938v184h16v-176.938l112-14v30.938h-72v16h72v16h-72v16h72v16h-72v16h72v16z"/><path d="m136 144h16v16h-16z"/><path d="m144 192h16v16h-16z"/><path d="m200 152h16v16h-16z"/><path d="m304 136h16v16h-16z"/><path d="m344 96h16v16h-16z"/><path d="m344 176h16v16h-16z"/><path d="m376 144h16v16h-16z"/></g></svg>